<svg width="24" height="25" viewBox="0 0 24 25" fill="none" xmlns="http://www.w3.org/2000/svg">
<path fill-rule="evenodd" clip-rule="evenodd" d="M15.2929 5.79289C15.6834 5.40237 16.3166 5.40237 16.7071 5.79289L22.7071 11.7929C23.0976 12.1834 23.0976 12.8166 22.7071 13.2071L16.7071 19.2071C16.3166 19.5976 15.6834 19.5976 15.2929 19.2071C14.9024 18.8166 14.9024 18.1834 15.2929 17.7929L19.5858 13.5H6.5C5.94772 13.5 5.5 13.0523 5.5 12.5C5.5 11.9477 5.94772 11.5 6.5 11.5H19.5858L15.2929 7.20711C14.9024 6.81658 14.9024 6.18342 15.2929 5.79289ZM2.25 13.75C2.94036 13.75 3.5 13.1904 3.5 12.5C3.5 11.8096 2.94036 11.25 2.25 11.25C1.55964 11.25 1 11.8096 1 12.5C1 13.1904 1.55964 13.75 2.25 13.75Z" fill="white"/>
</svg>
