<svg width="136" height="40" viewBox="0 0 136 40" fill="none" xmlns="http://www.w3.org/2000/svg">
<path fill-rule="evenodd" clip-rule="evenodd" d="M8.76192 12.192C8.29044 12.4643 8 12.9676 8 13.5122V26.4878C8 27.0324 8.29044 27.5357 8.76192 27.808L19.995 34.2958C20.4665 34.5681 21.0473 34.5681 21.5188 34.2958L32.7519 27.808C33.2233 27.5357 33.5138 27.0324 33.5138 26.4878V14.7319C33.5138 14.3414 33.0918 14.0968 32.7532 14.291L21.2622 20.8816C20.7754 21.1608 20.1546 20.9924 19.8756 20.5055C19.5965 20.0186 19.7649 19.3975 20.2516 19.1184L31.7747 12.5093C32.1146 12.3144 32.1153 11.8244 31.7761 11.6284L21.5188 5.70423C21.0473 5.43192 20.4665 5.43192 19.995 5.70423L8.76192 12.192ZM20.7569 13.3943C22.4401 13.3943 23.8046 12.598 23.8046 11.6158C23.8046 10.6336 22.4401 9.83736 20.7569 9.83736C19.0737 9.83736 17.7092 10.6336 17.7092 11.6158C17.7092 12.598 19.0737 13.3943 20.7569 13.3943Z" fill="#FF7C60"/>
<path d="M126.357 23.3026C126.52 23.2616 126.683 23.2343 126.847 23.2207C127.024 23.207 127.18 23.2275 127.316 23.2821C127.466 23.3367 127.588 23.4322 127.684 23.5687C127.779 23.6915 127.827 23.8689 127.827 24.1009C127.827 24.2647 127.786 24.4216 127.704 24.5717C127.622 24.7219 127.52 24.8583 127.398 24.9811C127.275 25.104 127.139 25.2131 126.99 25.3087C126.84 25.3906 126.697 25.4588 126.561 25.5134C126.166 25.6908 125.711 25.8273 125.193 25.9228C124.69 26.0183 124.166 26.0524 123.622 26.0251C122.887 25.9979 122.179 25.8546 121.499 25.5953C120.832 25.3223 120.308 24.8788 119.927 24.2647C119.574 23.6642 119.363 22.9955 119.295 22.2586C119.227 21.5216 119.261 20.8256 119.397 20.1706C119.546 19.379 119.798 18.7376 120.152 18.2463C120.519 17.7414 120.955 17.3388 121.458 17.0386C122.071 16.6837 122.758 16.4995 123.52 16.4859C124.282 16.4722 125.01 16.6223 125.704 16.9362C126.166 17.1409 126.581 17.4207 126.949 17.7755C127.316 18.1167 127.595 18.5329 127.786 19.0242C127.84 19.147 127.881 19.2971 127.908 19.4746C127.949 19.652 127.976 19.843 127.99 20.0477C128.003 20.2388 128.003 20.4299 127.99 20.6209C127.976 20.812 127.942 20.9826 127.888 21.1327C127.806 21.3783 127.704 21.5694 127.582 21.7059C127.459 21.8423 127.303 21.9447 127.112 22.0129C126.922 22.0811 126.69 22.1289 126.418 22.1562C126.16 22.1699 125.847 22.1835 125.479 22.1971C125.153 22.2108 124.846 22.2176 124.561 22.2176C124.275 22.2176 123.982 22.2176 123.683 22.2176C123.384 22.204 123.071 22.1971 122.744 22.1971C122.431 22.1835 122.077 22.1699 121.683 22.1562C121.642 22.4291 121.676 22.668 121.785 22.8727C121.907 23.0637 122.071 23.2275 122.275 23.364C122.479 23.4868 122.71 23.5823 122.969 23.6506C123.227 23.7188 123.479 23.7597 123.724 23.7734C124.187 23.8007 124.629 23.7666 125.051 23.671C125.472 23.5619 125.908 23.439 126.357 23.3026ZM125.479 19.3313C125.221 19.031 124.949 18.8127 124.663 18.6762C124.445 18.5807 124.214 18.5397 123.969 18.5534C123.738 18.5534 123.513 18.5875 123.295 18.6557C122.901 18.7513 122.567 18.956 122.295 19.2699C122.268 19.2971 122.22 19.3654 122.152 19.4746C122.084 19.5701 122.016 19.6724 121.948 19.7816C121.894 19.8908 121.853 19.9931 121.826 20.0887C121.798 20.1842 121.812 20.232 121.866 20.232H125.867C125.853 20.0409 125.819 19.884 125.765 19.7611C125.711 19.6247 125.615 19.4814 125.479 19.3313Z" fill="#332928"/>
<path d="M117.459 18.2259C117.568 18.4169 117.623 18.6216 117.623 18.84C117.636 19.0583 117.589 19.263 117.48 19.4541C117.357 19.6997 117.181 19.8703 116.949 19.9659C116.731 20.0477 116.487 20.0546 116.214 19.9863C116.092 19.959 115.983 19.9113 115.888 19.843C115.793 19.7748 115.69 19.7066 115.582 19.6383C115.486 19.5564 115.371 19.4814 115.235 19.4132C115.112 19.3449 114.949 19.2972 114.745 19.2699C114.541 19.2426 114.316 19.2426 114.071 19.2699C113.84 19.2972 113.629 19.3517 113.438 19.4336C113.139 19.5837 112.901 19.8157 112.724 20.1296C112.547 20.4299 112.432 20.7574 112.377 21.1122C112.323 21.4534 112.329 21.8014 112.398 22.1562C112.479 22.511 112.629 22.8113 112.847 23.0569C113.01 23.248 113.221 23.4049 113.479 23.5277C113.751 23.6506 114.01 23.7256 114.255 23.7529C114.486 23.7802 114.718 23.7802 114.949 23.7529C115.18 23.712 115.405 23.6574 115.622 23.5892C115.786 23.5209 115.969 23.4322 116.174 23.323C116.378 23.2002 116.575 23.1252 116.765 23.0979C117.01 23.0979 117.201 23.1661 117.337 23.3026C117.473 23.4254 117.568 23.5823 117.623 23.7734C117.677 23.9508 117.684 24.1419 117.643 24.3466C117.616 24.5513 117.541 24.7287 117.419 24.8788C117.255 25.0835 117.024 25.2814 116.725 25.4724C116.425 25.6499 116.14 25.7795 115.867 25.8614C115.541 25.9706 115.173 26.032 114.765 26.0456C114.371 26.0593 113.996 26.0456 113.643 26.0047C113.479 25.9774 113.309 25.9433 113.132 25.9023C112.955 25.8614 112.785 25.8136 112.622 25.759C112.023 25.5407 111.52 25.2336 111.112 24.8379C110.717 24.4284 110.411 23.9713 110.193 23.4663C109.989 22.9614 109.873 22.4223 109.846 21.8492C109.819 21.276 109.887 20.7096 110.05 20.1501C110.2 19.6179 110.384 19.1675 110.601 18.799C110.833 18.4306 111.098 18.1303 111.397 17.8983C111.71 17.6527 112.057 17.4616 112.438 17.3252C112.819 17.175 113.241 17.0454 113.704 16.9362C114.18 16.8407 114.684 16.8407 115.214 16.9362C115.745 17.0317 116.221 17.2092 116.643 17.4684C116.97 17.6459 117.242 17.8983 117.459 18.2259Z" fill="#332928"/>
<path d="M108.073 18.3487C108.073 18.7308 108.073 19.1607 108.073 19.6383C108.087 20.116 108.094 20.6141 108.094 21.1327C108.094 21.6376 108.094 22.1425 108.094 22.6475C108.094 23.1388 108.087 23.596 108.073 24.019C108.059 24.2237 108.039 24.4489 108.012 24.6945C107.985 24.9265 107.93 25.1449 107.849 25.3496C107.767 25.5543 107.638 25.7249 107.461 25.8614C107.297 25.9842 107.073 26.0388 106.787 26.0251C106.365 25.9978 106.059 25.8136 105.869 25.4724C105.692 25.1313 105.59 24.6536 105.563 24.0395C105.563 23.7256 105.556 23.364 105.542 22.9545C105.542 22.5451 105.535 22.1289 105.522 21.7058C105.522 21.2828 105.522 20.8734 105.522 20.4776C105.522 20.0682 105.522 19.6997 105.522 19.3722C105.522 19.1811 105.515 18.9491 105.501 18.6762C105.501 18.4033 105.508 18.1235 105.522 17.8369C105.535 17.5503 105.569 17.2774 105.624 17.0181C105.678 16.7451 105.767 16.52 105.889 16.3425C105.984 16.2334 106.12 16.1515 106.297 16.0969C106.474 16.0287 106.658 15.9945 106.848 15.9945C107.053 15.9945 107.243 16.0287 107.42 16.0969C107.61 16.1651 107.747 16.2607 107.828 16.3835C107.883 16.4654 107.923 16.5814 107.951 16.7315C107.978 16.8816 107.998 17.0522 108.012 17.2433C108.039 17.4207 108.053 17.6117 108.053 17.8164C108.066 18.0075 108.073 18.1849 108.073 18.3487ZM107.297 14.2136C106.876 14.3228 106.522 14.2818 106.236 14.0908C105.964 13.8861 105.794 13.5858 105.726 13.1901C105.671 12.9035 105.692 12.651 105.787 12.4327C105.882 12.2143 106.025 12.0505 106.216 11.9414C106.406 11.8185 106.624 11.764 106.869 11.7776C107.114 11.7913 107.359 11.8868 107.604 12.0642C107.835 12.228 107.998 12.419 108.094 12.6374C108.202 12.8557 108.236 13.0673 108.196 13.272C108.168 13.4767 108.08 13.6677 107.93 13.8451C107.781 14.0089 107.57 14.1317 107.297 14.2136Z" fill="#332928"/>
<path d="M103.819 17.8779C103.847 18.3282 103.84 18.7922 103.799 19.2699C103.772 19.7475 103.724 20.2115 103.656 20.6619C103.52 21.4398 103.268 22.1972 102.901 22.9341C102.534 23.6711 101.996 24.2988 101.288 24.8174C100.554 25.3633 99.7168 25.7386 98.7779 25.9433C97.839 26.1343 96.9069 26.2503 95.9816 26.2913C95.6686 26.3186 95.3489 26.3254 95.0223 26.3118C94.7093 26.3118 94.4032 26.2776 94.1038 26.2094C93.8589 26.1685 93.6752 26.0934 93.5527 25.9842C93.4847 25.9433 93.4302 25.8887 93.3894 25.8205C93.3486 25.7522 93.3146 25.684 93.2874 25.6158C93.2465 25.5475 93.2125 25.4793 93.1853 25.4111C93.1717 25.3292 93.1513 25.2473 93.1241 25.1654C93.1105 25.0972 93.0969 25.0358 93.0833 24.9812C93.0833 24.9129 93.0833 24.8515 93.0833 24.7969V13.1082C93.0833 13.0127 93.0833 12.924 93.0833 12.8421C93.0833 12.7602 93.0969 12.6783 93.1241 12.5965C93.1513 12.4054 93.1921 12.2485 93.2465 12.1256C93.301 11.9619 93.3758 11.8459 93.4711 11.7776C93.5527 11.7094 93.6343 11.6616 93.716 11.6343C93.7976 11.5934 93.8725 11.5593 93.9405 11.532C94.0222 11.5047 94.1038 11.5047 94.1854 11.532C94.2807 11.5456 94.3828 11.5252 94.4916 11.4706L97.9003 11.5525C98.7983 11.5798 99.6012 11.7913 100.309 12.1871C101.016 12.5692 101.622 13.0605 102.125 13.6609C102.629 14.2614 103.023 14.9369 103.309 15.6875C103.595 16.4245 103.765 17.1546 103.819 17.8779ZM100.023 21.7673C100.282 21.3579 100.472 20.8871 100.595 20.3548C100.717 19.8226 100.771 19.2835 100.758 18.7376C100.744 18.1781 100.669 17.6391 100.533 17.1205C100.397 16.5882 100.207 16.1174 99.9618 15.708C99.7713 15.4078 99.5263 15.1621 99.227 14.9711C98.9276 14.78 98.5942 14.6367 98.2268 14.5412C97.8594 14.432 97.4648 14.3569 97.043 14.316C96.6348 14.2751 96.2334 14.2546 95.8387 14.2546C95.8523 14.6503 95.8592 15.0325 95.8592 15.4009C95.8592 15.7694 95.8592 16.1583 95.8592 16.5678C95.8455 17.0591 95.8387 17.5367 95.8387 18.0007C95.8387 18.4647 95.8387 18.9151 95.8387 19.3518V23.5278C96.2606 23.5141 96.662 23.4936 97.043 23.4663C97.4376 23.4254 97.8118 23.3435 98.1656 23.2207C98.533 23.0979 98.8664 22.9273 99.1657 22.7089C99.4787 22.4769 99.7645 22.1631 100.023 21.7673Z" fill="#332928"/>
<path d="M91.2697 16.9772C91.3922 17.1682 91.4466 17.3729 91.433 17.5913C91.433 17.9052 91.3786 18.1781 91.2697 18.4101C91.2425 18.4784 91.2017 18.5671 91.1472 18.6762C91.1064 18.7854 91.0588 18.9014 91.0044 19.0242C90.9635 19.1471 90.9159 19.2631 90.8615 19.3722C90.8071 19.4814 90.7662 19.5633 90.739 19.6179L90.6982 19.7202C90.5077 20.1433 90.324 20.5527 90.1471 20.9485C89.9702 21.3442 89.7729 21.7673 89.5552 22.2177C89.3375 22.6544 89.1265 23.0842 88.9224 23.5073C88.7319 23.9167 88.5414 24.3193 88.3509 24.7151C88.2965 24.8242 88.2489 24.9334 88.208 25.0426C88.1672 25.1381 88.1128 25.2405 88.0448 25.3497L87.065 27.4581C86.8881 27.8129 86.718 28.1609 86.5548 28.5021C86.4051 28.8433 86.235 29.1845 86.0445 29.5257C86.0037 29.5939 85.9628 29.6553 85.922 29.7099C85.8948 29.7781 85.8676 29.8464 85.8404 29.9146C85.7451 30.0784 85.6022 30.2353 85.4117 30.3854C85.2348 30.5492 85.0443 30.6379 84.8402 30.6515C84.4728 30.6788 84.1531 30.5697 83.8809 30.324C83.7176 30.2285 83.5884 30.092 83.4931 29.9146C83.4387 29.7918 83.4115 29.6348 83.4115 29.4438C83.4251 29.3619 83.4319 29.28 83.4319 29.1981C83.4455 29.1299 83.4591 29.0617 83.4727 28.9934C83.4999 28.9252 83.5203 28.8569 83.5339 28.7887C83.5475 28.7205 83.5679 28.6659 83.5952 28.6249C83.636 28.5158 83.67 28.4612 83.6972 28.4612L85.1872 25.2268C85.1192 25.0767 85.0511 24.9266 84.9831 24.7765C84.9151 24.6127 84.8538 24.4694 84.7994 24.3466C84.6225 23.9235 84.432 23.48 84.2279 23.016C84.0374 22.5384 83.8401 22.0675 83.636 21.6035C83.4319 21.1259 83.221 20.6619 83.0032 20.2115C82.7855 19.7612 82.5678 19.3313 82.3501 18.9219C82.2684 18.7854 82.1936 18.6421 82.1256 18.492C82.0575 18.3282 82.0031 18.1713 81.9623 18.0212C81.9215 17.8574 81.9078 17.6937 81.9215 17.5299C81.9351 17.3661 81.9963 17.2024 82.1052 17.0386C82.214 16.8339 82.3569 16.6906 82.5338 16.6087C82.7107 16.5132 82.8944 16.4722 83.0849 16.4859C83.289 16.4859 83.4795 16.5268 83.6564 16.6087C83.8333 16.6906 83.9762 16.7998 84.085 16.9362C84.3163 17.1819 84.5 17.4548 84.6361 17.7551C84.7722 18.0553 84.9015 18.3624 85.0239 18.6762C85.2825 19.2221 85.5478 19.7953 85.82 20.3958C86.0921 20.9962 86.3643 21.5831 86.6364 22.1562L87.6978 19.9045C87.8066 19.6861 87.9019 19.4746 87.9835 19.2699C88.0788 19.0652 88.174 18.8673 88.2693 18.6762C88.3781 18.4442 88.4802 18.2054 88.5754 17.9598C88.6843 17.7141 88.8068 17.4889 88.9428 17.2842C88.9701 17.2297 88.9973 17.1819 89.0245 17.1409C89.0517 17.1 89.0789 17.0522 89.1061 16.9977C89.2286 16.8339 89.3375 16.7042 89.4327 16.6087C89.5008 16.5541 89.5552 16.5132 89.596 16.4859C89.6504 16.4449 89.7117 16.4177 89.7797 16.404C89.8749 16.3767 89.9634 16.3631 90.045 16.3631C90.1403 16.3494 90.2287 16.3494 90.3104 16.3631C90.4465 16.404 90.6097 16.4654 90.8003 16.5473C91.0044 16.6292 91.1608 16.7725 91.2697 16.9772Z" fill="#332928"/>
<path d="M77.3121 21.3988C77.6114 21.7127 77.8292 21.9447 77.9652 22.0948C78.1149 22.2313 78.217 22.3336 78.2714 22.4019C78.3394 22.4701 78.3871 22.511 78.4143 22.5247C78.4415 22.5383 78.4891 22.5793 78.5571 22.6475C78.6252 22.7157 78.734 22.8249 78.8837 22.975C79.0334 23.1115 79.2579 23.3367 79.5573 23.6506C79.8022 23.8962 79.9995 24.1828 80.1492 24.5103C80.3125 24.8242 80.2989 25.1654 80.1084 25.5339C79.9995 25.7249 79.8771 25.8614 79.741 25.9433C79.6049 26.0115 79.4552 26.0388 79.2919 26.0251C79.1423 26.0115 78.979 25.9637 78.8021 25.8819C78.6388 25.8 78.4755 25.6976 78.3122 25.5748C77.9992 25.3428 77.6999 25.0767 77.4141 24.7764C77.1284 24.4626 76.897 24.2237 76.7202 24.06C76.5977 23.9371 76.5228 23.8553 76.4956 23.8143C76.4684 23.787 76.4412 23.7666 76.414 23.7529C76.3868 23.7256 76.3596 23.6983 76.3323 23.671C76.2371 23.5755 76.135 23.48 76.0262 23.3844C75.9173 23.2889 75.8085 23.1866 75.6996 23.0774V23.8757C75.6996 24.0259 75.7064 24.135 75.72 24.2033C75.72 24.3397 75.7132 24.4421 75.6996 24.5103C75.6588 24.6604 75.6384 24.8037 75.6384 24.9402C75.6248 25.0084 75.6112 25.0767 75.5975 25.1449C75.5839 25.1995 75.5635 25.2609 75.5363 25.3291C75.5227 25.3564 75.5091 25.3769 75.4955 25.3906C75.4955 25.4042 75.4955 25.4247 75.4955 25.452C75.4819 25.4793 75.4683 25.4997 75.4547 25.5134C75.4547 25.527 75.4479 25.5475 75.4343 25.5748C75.3662 25.7113 75.2574 25.8409 75.1077 25.9637C74.8491 26.1139 74.5294 26.1548 74.1484 26.0866C73.9442 26.0456 73.7878 25.9706 73.6789 25.8614C73.5564 25.7795 73.4748 25.6635 73.434 25.5134C73.4068 25.4451 73.3795 25.3769 73.3523 25.3087C73.3387 25.2268 73.3183 25.1517 73.2911 25.0835C73.2639 25.0153 73.2503 24.9538 73.2503 24.8993C73.2503 24.831 73.2503 24.7764 73.2503 24.7355V13.0877C73.2503 13.0058 73.2503 12.924 73.2503 12.8421C73.2503 12.7602 73.2571 12.6783 73.2707 12.5964C73.2843 12.5146 73.2979 12.4395 73.3115 12.3713C73.3387 12.2894 73.3659 12.2143 73.3932 12.1461C73.4476 12.0096 73.5156 11.9004 73.5973 11.8186C73.6653 11.7503 73.7333 11.7026 73.8014 11.6753C73.883 11.6343 73.9579 11.6002 74.0259 11.5729C74.0939 11.5593 74.1688 11.5524 74.2504 11.5524C74.3457 11.5388 74.4341 11.532 74.5158 11.532C74.7063 11.532 74.8968 11.5866 75.0873 11.6957C75.2642 11.8186 75.3934 11.9755 75.4751 12.1666C75.5839 12.4258 75.6384 12.6783 75.6384 12.924C75.652 13.0604 75.6656 13.272 75.6792 13.5586C75.6928 13.8315 75.6996 14.0362 75.6996 14.1727V14.2546C75.7132 14.7049 75.72 15.1348 75.72 15.5442C75.72 15.9536 75.72 16.3971 75.72 16.8748C75.7064 17.3524 75.6996 17.8096 75.6996 18.2463C75.6996 18.6694 75.6996 19.0924 75.6996 19.5155V19.7407C75.8085 19.6315 75.9173 19.5291 76.0262 19.4336C76.135 19.3381 76.2371 19.2357 76.3323 19.1266C76.3868 19.0856 76.4412 19.0378 76.4956 18.9833L76.7202 18.7581C76.897 18.5807 77.1284 18.3418 77.4141 18.0416C77.6999 17.7277 77.9992 17.4548 78.3122 17.2228C78.6524 16.9771 78.979 16.827 79.2919 16.7724C79.6185 16.7179 79.8907 16.8816 80.1084 17.2637C80.2989 17.6322 80.3125 17.9802 80.1492 18.3077C79.9995 18.6216 79.8022 18.915 79.5573 19.188C79.2579 19.5018 79.0334 19.7338 78.8837 19.884C78.734 20.0204 78.6252 20.1228 78.5571 20.191C78.4891 20.2456 78.4415 20.2797 78.4143 20.2934C78.3871 20.307 78.3394 20.348 78.2714 20.4162C78.217 20.4708 78.1149 20.5731 77.9652 20.7233C77.8292 20.8597 77.6114 21.0849 77.3121 21.3988Z" fill="#332928"/>
<path d="M71.415 18.2259C71.5239 18.4169 71.5783 18.6216 71.5783 18.84C71.5919 19.0583 71.5443 19.263 71.4355 19.4541C71.313 19.6997 71.1361 19.8703 70.9048 19.9659C70.6871 20.0477 70.4421 20.0546 70.17 19.9863C70.0475 19.959 69.9386 19.9113 69.8434 19.843C69.7481 19.7748 69.6461 19.7066 69.5372 19.6383C69.442 19.5564 69.3263 19.4814 69.1902 19.4132C69.0678 19.3449 68.9045 19.2972 68.7004 19.2699C68.4963 19.2426 68.2717 19.2426 68.0268 19.2699C67.7955 19.2972 67.5846 19.3517 67.3941 19.4336C67.0947 19.5837 66.8566 19.8157 66.6797 20.1296C66.5028 20.4299 66.3871 20.7574 66.3327 21.1122C66.2783 21.4534 66.2851 21.8014 66.3531 22.1562C66.4348 22.511 66.5844 22.8113 66.8022 23.0569C66.9654 23.248 67.1764 23.4049 67.4349 23.5277C67.707 23.6506 67.9656 23.7256 68.2105 23.7529C68.4418 23.7802 68.6732 23.7802 68.9045 23.7529C69.1358 23.712 69.3603 23.6574 69.5781 23.5892C69.7413 23.5209 69.925 23.4322 70.1291 23.323C70.3333 23.2002 70.5306 23.1252 70.7211 23.0979C70.966 23.0979 71.1565 23.1661 71.2926 23.3026C71.4286 23.4254 71.5239 23.5823 71.5783 23.7734C71.6328 23.9508 71.6396 24.1419 71.5987 24.3466C71.5715 24.5513 71.4967 24.7287 71.3742 24.8788C71.2109 25.0835 70.9796 25.2814 70.6802 25.4724C70.3809 25.6499 70.0951 25.7795 69.823 25.8614C69.4964 25.9706 69.129 26.032 68.7208 26.0456C68.3262 26.0593 67.952 26.0456 67.5982 26.0047C67.4349 25.9774 67.2648 25.9433 67.0879 25.9023C66.911 25.8614 66.7409 25.8136 66.5776 25.759C65.9789 25.5407 65.4754 25.2336 65.0672 24.8379C64.6726 24.4284 64.3664 23.9713 64.1487 23.4663C63.9446 22.9614 63.8289 22.4223 63.8017 21.8492C63.7745 21.276 63.8426 20.7096 64.0058 20.1501C64.1555 19.6179 64.3392 19.1675 64.5569 18.799C64.7883 18.4306 65.0536 18.1303 65.353 17.8983C65.6659 17.6527 66.0129 17.4616 66.3939 17.3252C66.7749 17.175 67.1968 17.0454 67.6594 16.9362C68.1357 16.8407 68.6391 16.8407 69.1698 16.9362C69.7005 17.0317 70.1768 17.2092 70.5986 17.4684C70.9252 17.6459 71.1973 17.8983 71.415 18.2259Z" fill="#332928"/>
<path d="M62.1451 21.235C62.1179 21.6854 62.0907 22.1425 62.0634 22.6065C62.0362 23.0569 61.9614 23.4936 61.8389 23.9167C61.7301 24.3397 61.5532 24.7218 61.3082 25.063C61.0769 25.4042 60.7435 25.6771 60.3081 25.8818C59.9271 26.0729 59.5189 26.2025 59.0834 26.2708C58.648 26.3527 58.2126 26.3868 57.7771 26.3731C57.3417 26.3595 56.9199 26.2912 56.5116 26.1684C56.1034 26.0592 55.736 25.9023 55.4094 25.6976C55.0829 25.4929 54.8175 25.2268 54.6134 24.8992C54.4093 24.5717 54.246 24.2169 54.1236 23.8348C54.0147 23.4527 53.9399 23.0569 53.899 22.6475C53.8582 22.2381 53.831 21.856 53.8174 21.5011C53.763 20.5595 53.763 19.6315 53.8174 18.7171C53.8174 18.5397 53.8174 18.3418 53.8174 18.1235C53.8174 17.8915 53.831 17.6663 53.8582 17.448C53.899 17.2296 53.9603 17.0317 54.0419 16.8543C54.1236 16.6632 54.2596 16.52 54.4501 16.4244C54.8584 16.2061 55.2326 16.1924 55.5727 16.3835C55.9265 16.5745 56.1374 16.9703 56.2055 17.5708C56.2463 17.8847 56.2599 18.2327 56.2463 18.6148C56.2463 18.9969 56.2599 19.3449 56.2871 19.6588C56.3007 20.1228 56.3143 20.6277 56.3279 21.1736C56.3416 21.7058 56.4164 22.1835 56.5525 22.6065C56.7021 23.0296 56.9403 23.3503 57.2669 23.5687C57.607 23.7734 58.1105 23.7802 58.7773 23.5891C59.0902 23.4936 59.2943 23.2548 59.3896 22.8727C59.4985 22.4905 59.5529 21.9242 59.5529 21.1736C59.5529 20.8461 59.5461 20.4844 59.5325 20.0887C59.5189 19.6929 59.5121 19.304 59.5121 18.9218C59.5121 18.5261 59.5189 18.1644 59.5325 17.8369C59.5597 17.4957 59.6005 17.2364 59.6549 17.059C59.723 16.8134 59.8659 16.6291 60.0836 16.5063C60.3013 16.3835 60.5326 16.3221 60.7775 16.3221C61.0225 16.3084 61.2538 16.3562 61.4715 16.4654C61.6892 16.5745 61.8389 16.752 61.9206 16.9976C62.0022 17.216 62.0566 17.4957 62.0839 17.8369C62.1247 18.1644 62.1519 18.5261 62.1655 18.9218C62.1791 19.304 62.1791 19.6997 62.1655 20.1091C62.1655 20.5049 62.1587 20.8802 62.1451 21.235Z" fill="#332928"/>
<path d="M52.3028 24.5513C52.33 24.6195 52.3436 24.7219 52.3436 24.8583C52.3436 24.9812 52.3436 25.0835 52.3436 25.1654C52.3436 25.2746 52.3232 25.3769 52.2824 25.4725C52.2416 25.568 52.1872 25.6567 52.1191 25.7386C51.9966 25.9023 51.8198 26.0252 51.5884 26.107C51.2619 26.2162 50.9557 26.2708 50.6699 26.2708C50.5202 26.2845 50.3638 26.2913 50.2005 26.2913C50.0372 26.2913 49.8739 26.3049 49.7106 26.3322H49.629C48.5812 26.3459 47.4994 26.3459 46.3836 26.3322C46.1115 26.3186 45.8053 26.3186 45.4651 26.3322C45.1249 26.3595 44.7916 26.3527 44.465 26.3117C44.1384 26.2845 43.839 26.2094 43.5669 26.0866C43.3084 25.9501 43.1247 25.7386 43.0158 25.452C42.9886 25.3837 42.9682 25.3223 42.9546 25.2677C42.941 25.1995 42.9342 25.1313 42.9342 25.063C42.8797 24.599 42.8593 24.1419 42.8729 23.6915C42.8865 23.2412 42.8933 22.7976 42.8933 22.3609L42.9342 19.3927V16.6496C42.9342 16.1583 42.9342 15.7216 42.9342 15.3395C42.9478 14.9574 42.9614 14.5343 42.975 14.0703V13.968C42.9886 13.8315 42.9954 13.695 42.9954 13.5586C43.009 13.4221 43.0158 13.2856 43.0158 13.1492C43.043 12.8353 43.1179 12.5692 43.2403 12.3508C43.322 12.1461 43.4648 11.9823 43.6689 11.8595C43.8458 11.7367 44.0568 11.6753 44.3017 11.6753C44.3969 11.6753 44.4854 11.6821 44.567 11.6957C44.6623 11.6957 44.7507 11.7026 44.8324 11.7162C44.914 11.7299 44.9889 11.7572 45.0569 11.7981C45.1385 11.839 45.2202 11.8936 45.3018 11.9619C45.3835 12.0574 45.4583 12.1734 45.5264 12.3099C45.5808 12.46 45.6148 12.6101 45.6284 12.7602C45.642 12.8557 45.6556 12.9445 45.6692 13.0263C45.6828 13.1082 45.6896 13.1901 45.6896 13.272C45.6624 13.3539 45.6488 13.4357 45.6488 13.5176C45.6488 13.5995 45.6488 13.6746 45.6488 13.7428V14.1113L45.5672 23.7529L49.6086 23.7939H50.5679C50.6495 23.7939 50.738 23.8007 50.8332 23.8143C50.9285 23.8143 51.0237 23.8212 51.119 23.8348C51.2278 23.8485 51.3231 23.8621 51.4047 23.8757C51.4864 23.8894 51.568 23.9099 51.6497 23.9372C51.7993 23.9781 51.9218 24.0463 52.0171 24.1419C52.1667 24.2783 52.262 24.4148 52.3028 24.5513Z" fill="#332928"/>
</svg>
