<svg width="40" height="40" viewBox="0 0 40 40" fill="none" xmlns="http://www.w3.org/2000/svg">
<g clip-path="url(#clip0_4_517)">
<path fill-rule="evenodd" clip-rule="evenodd" d="M40 20C40 31.0457 31.0457 40 20 40C8.9543 40 0 31.0457 0 20C0 8.9543 8.9543 0 20 0C31.0457 0 40 8.9543 40 20ZM5.83091 13.3278C6.06087 22.6933 11.58 28.3215 21.2564 28.3215H21.805V22.9634C25.3607 23.2636 28.0493 25.4699 29.1283 28.3215H34.1524C32.7726 24.0591 29.146 21.7027 26.8817 20.8021C29.146 19.6915 32.3302 16.9899 33.0909 13.3278H28.5268C27.5362 16.2995 24.6 19.0011 21.805 19.2562V13.3278H17.2408V23.7138C14.4104 23.1135 10.8372 20.2018 10.6779 13.3278H5.83091Z" fill="#BE928D"/>
</g>
<defs>
<clipPath id="clip0_4_517">
<rect width="40" height="40" fill="white"/>
</clipPath>
</defs>
</svg>
